<svg xmlns="http://www.w3.org/2000/svg" width="1280" height="720" viewBox="0 0 1280 720" role="img" aria-labelledby="title description">
  <title id="title">Claim to Commit evidence audit preview</title>
  <description id="description">A warm paper interface showing an evidence score and a six-step provenance chain.</description>
  <rect width="1280" height="720" fill="#f4f0e8"/>
  <circle cx="1130" cy="80" r="240" fill="#dce9df" opacity="0.62"/>
  <rect x="56" y="42" width="1168" height="636" rx="24" fill="#fffdf8" stroke="#d5d0c5" stroke-width="2"/>
  <rect x="84" y="72" width="42" height="42" rx="10" fill="none" stroke="#172126" stroke-width="2"/>
  <text x="93" y="98" fill="#172126" font-family="monospace" font-size="12" font-weight="700">C→C</text>
  <text x="144" y="100" fill="#172126" font-family="system-ui, sans-serif" font-size="22" font-weight="750">Claim to Commit</text>
  <text x="1030" y="98" fill="#18794e" font-family="monospace" font-size="13" font-weight="700">LOCAL EVIDENCE</text>
  <line x1="84" y1="138" x2="1196" y2="138" stroke="#d5d0c5" stroke-width="2"/>
  <text x="84" y="190" fill="#5f6b70" font-family="monospace" font-size="13" font-weight="700" letter-spacing="2">HEADLINE CLAIM</text>
  <text x="84" y="236" fill="#172126" font-family="system-ui, sans-serif" font-size="34" font-weight="760">Claims are graded by transparent rules</text>
  <rect x="1005" y="172" width="164" height="66" rx="16" fill="#e4f1e8" stroke="#18794e" stroke-width="2"/>
  <text x="1030" y="199" fill="#18794e" font-family="monospace" font-size="12" font-weight="700">PROOF SCORE</text>
  <text x="1030" y="226" fill="#172126" font-family="system-ui, sans-serif" font-size="28" font-weight="800">63%</text>
  <line x1="116" y1="374" x2="1122" y2="374" stroke="#a9b4ae" stroke-width="4"/>
  <g font-family="system-ui, sans-serif">
    <g transform="translate(84 310)">
      <rect width="150" height="128" rx="16" fill="#fffdf8" stroke="#18794e" stroke-width="3"/>
      <circle cx="28" cy="30" r="12" fill="#18794e"/>
      <text x="50" y="35" fill="#18794e" font-family="monospace" font-size="12" font-weight="700">DECISION</text>
      <text x="18" y="76" fill="#172126" font-size="15" font-weight="700">Public rules</text>
      <text x="18" y="102" fill="#5f6b70" font-family="monospace" font-size="12">DEC-003</text>
    </g>
    <g transform="translate(270 310)">
      <rect width="150" height="128" rx="16" fill="#fffdf8" stroke="#18794e" stroke-width="3"/>
      <circle cx="28" cy="30" r="12" fill="#18794e"/>
      <text x="50" y="35" fill="#18794e" font-family="monospace" font-size="12" font-weight="700">SESSION</text>
      <text x="18" y="76" fill="#172126" font-size="15" font-weight="700">Core build</text>
      <text x="18" y="102" fill="#5f6b70" font-family="monospace" font-size="12">CODEX</text>
    </g>
    <g transform="translate(456 310)">
      <rect width="150" height="128" rx="16" fill="#fffdf8" stroke="#18794e" stroke-width="3"/>
      <circle cx="28" cy="30" r="12" fill="#18794e"/>
      <text x="50" y="35" fill="#18794e" font-family="monospace" font-size="12" font-weight="700">COMMIT</text>
      <text x="18" y="76" fill="#172126" font-size="15" font-weight="700">Audit engine</text>
      <text x="18" y="102" fill="#5f6b70" font-family="monospace" font-size="12">586f0d1</text>
    </g>
    <g transform="translate(642 310)">
      <rect width="150" height="128" rx="16" fill="#fffdf8" stroke="#18794e" stroke-width="3"/>
      <circle cx="28" cy="30" r="12" fill="#18794e"/>
      <text x="50" y="35" fill="#18794e" font-family="monospace" font-size="12" font-weight="700">FILE</text>
      <text x="18" y="76" fill="#172126" font-size="15" font-weight="700">Scoring logic</text>
      <text x="18" y="102" fill="#5f6b70" font-family="monospace" font-size="12">audit-claim.ts</text>
    </g>
    <g transform="translate(828 310)">
      <rect width="150" height="128" rx="16" fill="#fffdf8" stroke="#18794e" stroke-width="3"/>
      <circle cx="28" cy="30" r="12" fill="#18794e"/>
      <text x="50" y="35" fill="#18794e" font-family="monospace" font-size="12" font-weight="700">TEST</text>
      <text x="18" y="76" fill="#172126" font-size="15" font-weight="700">32 passing</text>
      <text x="18" y="102" fill="#5f6b70" font-family="monospace" font-size="12">VITEST</text>
    </g>
    <g transform="translate(1014 310)">
      <rect width="150" height="128" rx="16" fill="#fffdf8" stroke="#18794e" stroke-width="3"/>
      <circle cx="28" cy="30" r="12" fill="#18794e"/>
      <text x="50" y="35" fill="#18794e" font-family="monospace" font-size="12" font-weight="700">VISUAL</text>
      <text x="18" y="76" fill="#172126" font-size="15" font-weight="700">Audit preview</text>
      <text x="18" y="102" fill="#5f6b70" font-family="monospace" font-size="12">ORIGINAL SVG</text>
    </g>
  </g>
  <rect x="84" y="496" width="1080" height="126" rx="18" fill="#f8e9e7" stroke="#b42318" stroke-width="2"/>
  <text x="112" y="535" fill="#b42318" font-family="monospace" font-size="13" font-weight="700">AUDIT MODE · UNSUPPORTED</text>
  <text x="112" y="573" fill="#172126" font-family="system-ui, sans-serif" font-size="23" font-weight="740">“Automatically infers every evidence relationship”</text>
  <text x="112" y="600" fill="#5f6b70" font-family="system-ui, sans-serif" font-size="15">No implementation commit or test artifact exists. Confident prose is not proof.</text>
</svg>
